<svg width="24" height="24" viewBox="0 0 24 24" fill="none" xmlns="http://www.w3.org/2000/svg">
<path d="M7.5 12.995L7.505 13L7.5 13.005L7.495 13L7.5 12.995" stroke="#707276" stroke-width="1.5" stroke-linecap="round" stroke-linejoin="round"/>
<path d="M10.5 12.995L10.505 13L10.5 13.005L10.495 13L10.5 12.995" stroke="#707276" stroke-width="1.5" stroke-linecap="round" stroke-linejoin="round"/>
<path d="M13.5 12.995L13.505 13L13.5 13.005L13.495 13L13.5 12.995" stroke="#707276" stroke-width="1.5" stroke-linecap="round" stroke-linejoin="round"/>
<path d="M16.5 12.995L16.505 13L16.5 13.005L16.495 13L16.5 12.995" stroke="#707276" stroke-width="1.5" stroke-linecap="round" stroke-linejoin="round"/>
<path d="M7.5 15.995L7.505 16L7.5 16.005L7.495 16L7.5 15.995" stroke="#707276" stroke-width="1.5" stroke-linecap="round" stroke-linejoin="round"/>
<path d="M10.5 15.995L10.505 16L10.5 16.005L10.495 16L10.5 15.995" stroke="#707276" stroke-width="1.5" stroke-linecap="round" stroke-linejoin="round"/>
<path d="M13.5 15.995L13.505 16L13.5 16.005L13.495 16L13.5 15.995" stroke="#707276" stroke-width="1.5" stroke-linecap="round" stroke-linejoin="round"/>
<rect x="3" y="3" width="18" height="18" rx="5" stroke="#707276" stroke-width="1.5" stroke-linecap="round" stroke-linejoin="round"/>
<path d="M3 9H21" stroke="#707276" stroke-width="1.5" stroke-linecap="round" stroke-linejoin="round"/>
</svg>
