<svg width="20" height="20" viewBox="0 0 20 20" fill="none" xmlns="http://www.w3.org/2000/svg">
<g id="copy-01" clip-path="url(#clip0_1064_23950)">
<path id="Icon" d="M4.16797 12.4974C3.3914 12.4974 3.00311 12.4974 2.69683 12.3705C2.28845 12.2014 1.96399 11.8769 1.79484 11.4685C1.66797 11.1622 1.66797 10.774 1.66797 9.9974V4.33073C1.66797 3.39731 1.66797 2.9306 1.84962 2.57408C2.00941 2.26047 2.26438 2.00551 2.57798 1.84572C2.9345 1.66406 3.40121 1.66406 4.33464 1.66406H10.0013C10.7779 1.66406 11.1662 1.66406 11.4724 1.79093C11.8808 1.96009 12.2053 2.28454 12.3744 2.69292C12.5013 2.99921 12.5013 3.38749 12.5013 4.16406M10.168 18.3307H15.668C16.6014 18.3307 17.0681 18.3307 17.4246 18.1491C17.7382 17.9893 17.9932 17.7343 18.153 17.4207C18.3346 17.0642 18.3346 16.5975 18.3346 15.6641V10.1641C18.3346 9.23064 18.3346 8.76393 18.153 8.40741C17.9932 8.09381 17.7382 7.83884 17.4246 7.67905C17.0681 7.4974 16.6014 7.4974 15.668 7.4974H10.168C9.23455 7.4974 8.76784 7.4974 8.41132 7.67905C8.09771 7.83884 7.84275 8.09381 7.68296 8.40741C7.5013 8.76393 7.5013 9.23064 7.5013 10.1641V15.6641C7.5013 16.5975 7.5013 17.0642 7.68296 17.4207C7.84275 17.7343 8.09771 17.9893 8.41132 18.1491C8.76784 18.3307 9.23455 18.3307 10.168 18.3307Z" stroke="#414651" stroke-width="1.66667" stroke-linecap="round" stroke-linejoin="round"/>
</g>
<defs>
<clipPath id="clip0_1064_23950">
<rect width="20" height="20" fill="white"/>
</clipPath>
</defs>
</svg>
