<svg width="24" height="24" viewBox="0 0 24 24" fill="none" xmlns="http://www.w3.org/2000/svg">
<path fill-rule="evenodd" clip-rule="evenodd" d="M10.9714 10.2L16.5856 4.58578C17.3667 3.80474 18.633 3.80474 19.414 4.58578V4.58578C19.7891 4.96086 19.9998 5.46956 19.9998 6C19.9998 6.53043 19.7891 7.03914 19.414 7.41421L13.7998 13.0285C13.4173 13.411 12.9211 13.6591 12.3856 13.7356L10.5707 13.9949C10.4149 14.0171 10.2577 13.9647 10.1465 13.8535C10.0352 13.7422 9.98277 13.585 10.005 13.4292L10.2643 11.6143C10.3408 11.0788 10.5889 10.5826 10.9714 10.2V10.2Z" stroke="#707276" stroke-width="1.5" stroke-linecap="round" stroke-linejoin="round"/>
<path d="M17.7083 9.11945L14.8799 6.29102" stroke="#707276" stroke-width="1.5" stroke-linecap="round" stroke-linejoin="round"/>
<path d="M13.0001 3.05849C9.18542 2.62136 5.51158 4.64502 3.84233 8.10289C2.17308 11.5608 2.8737 15.6961 5.58877 18.4112C8.30384 21.1263 12.4392 21.8269 15.8971 20.1577C19.355 18.4884 21.3786 14.8146 20.9415 10.9998" stroke="#707276" stroke-width="1.5" stroke-linecap="round" stroke-linejoin="round"/>
</svg>
