<svg width="24" height="24" viewBox="0 0 24 24" fill="none" xmlns="http://www.w3.org/2000/svg">
<path fill-rule="evenodd" clip-rule="evenodd" d="M17.5028 17.3612C18.5503 17.3612 19.4003 16.5139 19.4036 15.4665V15.4665V15.4665C19.403 14.9335 19.1902 14.4227 18.8124 14.0469L17.5529 12.7863V9.04178C17.5526 7.56994 16.9673 6.15856 15.9259 5.11847C14.8845 4.07837 13.4724 3.49487 12.0005 3.49646V3.49646C8.93897 3.49812 6.45779 5.9802 6.45724 9.04178V12.7833L5.19772 14.0439C4.81959 14.4196 4.60651 14.9304 4.60547 15.4635V15.4635V15.4635C4.60878 16.5109 5.45882 17.3582 6.50626 17.3582L17.5028 17.3612Z" stroke="#B5B7BF" stroke-width="1.5" stroke-linecap="round" stroke-linejoin="round"/>
<path d="M10.5205 20.5036H13.4787" stroke="#B5B7BF" stroke-width="1.5" stroke-linecap="round" stroke-linejoin="round"/>
</svg>
