<svg width="24" height="24" viewBox="0 0 24 24" fill="none" xmlns="http://www.w3.org/2000/svg">
<g id="Folders/Folders">
<g id="Group">
<g id="Group_2">
<path id="Path" fill-rule="evenodd" clip-rule="evenodd" d="M19 9.0025H12.529C12.198 9.0025 11.888 8.8385 11.702 8.5645L10.297 6.4995C10.111 6.2265 9.802 6.0625 9.471 6.0625H5C3.895 6.0625 3 6.9575 3 8.0625V19.0025C3 20.1075 3.895 21.0025 5 21.0025H19C20.105 21.0025 21 20.1075 21 19.0025V11.0025C21 9.8985 20.105 9.0025 19 9.0025Z" stroke="#11141A" stroke-width="1.5" stroke-linecap="round" stroke-linejoin="round"/>
<path id="Path_2" d="M21 19.0025V11.0025C21 9.8985 20.105 9.0025 19 9.0025H12.529C12.198 9.0025 11.888 8.8385 11.702 8.5645L10.297 6.4995C10.111 6.2265 9.802 6.0625 9.471 6.0625H5C3.895 6.0625 3 6.9575 3 8.0625V19.0025" stroke="#11141A" stroke-width="1.5" stroke-linecap="round" stroke-linejoin="round"/>
<path id="Path_3" d="M19 5.94H14.529C14.198 5.94 13.888 5.776 13.702 5.502L12.297 3.437C12.111 3.164 11.802 3 11.471 3H5" stroke="#11141A" stroke-width="1.5" stroke-linecap="round" stroke-linejoin="round"/>
</g>
</g>
</g>
</svg>
