<svg width="48" height="49" viewBox="0 0 48 49" fill="none" xmlns="http://www.w3.org/2000/svg">
<g clip-path="url(#clip0_809_9482)">
<path d="M40.6524 13.8516L40.6041 13.7279L35.9158 1.49239C35.8204 1.25254 35.6514 1.04907 35.4332 0.911138C35.2148 0.775759 34.9602 0.710583 34.7037 0.724396C34.4471 0.738209 34.201 0.830347 33.9984 0.988388C33.7981 1.15113 33.6528 1.37163 33.5822 1.61989L30.4164 11.305H17.5982L14.4328 1.61951C14.3641 1.36997 14.2185 1.14846 14.0166 0.986513C13.814 0.828472 13.5679 0.736334 13.3113 0.722521C13.0548 0.708708 12.8002 0.773884 12.5818 0.909263C12.3643 1.04764 12.1956 1.25089 12.0992 1.49051L7.40195 13.7208L7.35544 13.8445C6.68059 15.6079 6.5973 17.5429 7.11813 19.3578C7.63896 21.1726 8.73568 22.769 10.2429 23.9061L10.2591 23.9185L10.3022 23.9489L17.4441 29.2971L20.9773 31.9713L23.1294 33.5961C23.3812 33.7873 23.6886 33.8907 24.0047 33.8907C24.3208 33.8907 24.6282 33.7873 24.8799 33.5961L27.0321 31.9713L30.5653 29.2971L37.7503 23.9166L37.7683 23.9024C39.2723 22.7651 40.3665 21.1704 40.8866 19.358C41.4067 17.5456 41.3245 15.6134 40.6524 13.8516ZM8.38782 39.8493H10.5572C10.1953 37.5426 8.19807 35.9358 5.59895 35.9358C2.52357 35.9358 0.21582 38.1966 0.21582 41.9834C0.21582 45.7026 2.4197 48.0093 5.66157 48.0093C8.5712 48.0093 10.6539 46.1376 10.6539 43.1084V41.6969H5.88582V43.3608H8.59444C8.56032 45.037 7.44095 46.0979 5.67357 46.0979C3.70595 46.0979 2.35745 44.6238 2.35745 41.9605C2.35745 39.3149 3.72882 37.846 5.62782 37.846C7.04495 37.8464 8.0147 38.6035 8.38782 39.8493ZM12.0891 47.8484H14.1662V39.0389H12.0891V47.8484ZM13.1364 37.639C13.7964 37.639 14.3357 37.1331 14.3357 36.5144C14.3357 35.8956 13.7968 35.3838 13.1364 35.3838C12.4761 35.3838 11.9316 35.8885 11.9316 36.5144C11.9316 37.1403 12.4667 37.639 13.1327 37.639H13.1364ZM20.3863 39.0389H18.6471V36.9228H16.5699V39.0389H15.3193V40.6458H16.5699V45.5466C16.5587 47.2049 17.7643 48.0228 19.3243 47.9744C19.7399 47.9659 20.1519 47.8962 20.5472 47.7678L20.1966 46.1429C19.9981 46.1942 19.7941 46.2214 19.5891 46.2239C19.0663 46.2239 18.6471 46.0401 18.6471 45.202V40.6409H20.3863V39.0389ZM21.9939 47.8484H29.2989V46.0638H24.1236V36.0959H21.9939V47.8484ZM33.2777 48.0265C34.6607 48.0265 35.4864 47.3778 35.8652 46.6379H35.9338V47.8484H37.9337V41.9493C37.9337 39.6198 36.0347 38.9196 34.3528 38.9196C32.4996 38.9196 31.0764 39.7454 30.6174 41.3519L32.5573 41.6283C32.7632 41.0253 33.3489 40.5093 34.3667 40.5093C35.3316 40.5093 35.8592 41.0028 35.8592 41.8694V41.9035C35.8592 42.4998 35.2333 42.5294 33.6782 42.6951C31.9686 42.8789 30.3332 43.3893 30.3332 45.3753C30.3283 47.1085 31.5958 48.0265 33.2777 48.0265ZM33.9606 46.5029C33.0939 46.5029 32.4737 46.1065 32.4737 45.3438C32.4737 44.5458 33.1678 44.2131 34.0929 44.0808C34.6386 44.0065 35.7291 43.8685 35.9976 43.6514V44.6894C36.0032 45.6674 35.2108 46.4999 33.9606 46.4999V46.5029ZM39.4637 47.8484H41.5067V46.4598H41.6267C41.9544 47.1025 42.6373 48.0036 44.1523 48.0036C46.2294 48.0036 47.7849 46.3559 47.7849 43.453C47.7849 40.5149 46.1841 38.9196 44.1467 38.9196C42.5916 38.9196 41.9428 39.8549 41.6267 40.492H41.5389V36.0959H39.4637V47.8484ZM41.5007 43.4418C41.5007 41.7273 42.2349 40.6236 43.5722 40.6236C44.9552 40.6236 45.6673 41.8 45.6673 43.4418C45.6673 45.0835 44.9443 46.2989 43.5722 46.2989C42.2466 46.2989 41.5007 45.1514 41.5007 43.4418Z" fill="black"/>
</g>
<defs>
<clipPath id="clip0_809_9482">
<rect width="48" height="48" fill="white" transform="translate(0 0.224609)"/>
</clipPath>
</defs>
</svg>
