<svg width="25" height="24" viewBox="0 0 25 24" fill="none" xmlns="http://www.w3.org/2000/svg">
<path d="M22.5555 10.0415H21.75V10H12.75V14H18.4015C17.577 16.3285 15.3615 18 12.75 18C9.4365 18 6.75 15.3135 6.75 12C6.75 8.6865 9.4365 6 12.75 6C14.2795 6 15.671 6.577 16.7305 7.5195L19.559 4.691C17.773 3.0265 15.384 2 12.75 2C7.2275 2 2.75 6.4775 2.75 12C2.75 17.5225 7.2275 22 12.75 22C18.2725 22 22.75 17.5225 22.75 12C22.75 11.3295 22.681 10.675 22.5555 10.0415Z" fill="#FFC107"/>
<path d="M3.90234 7.3455L7.18784 9.755C8.07684 7.554 10.2298 6 12.7493 6C14.2788 6 15.6703 6.577 16.7298 7.5195L19.5583 4.691C17.7723 3.0265 15.3833 2 12.7493 2C8.90834 2 5.57734 4.1685 3.90234 7.3455Z" fill="#FF3D00"/>
<path d="M12.7502 21.9964C15.3332 21.9964 17.6802 21.0079 19.4547 19.4004L16.3597 16.7814C15.3221 17.571 14.0539 17.9978 12.7502 17.9964C10.1492 17.9964 7.94066 16.3379 7.10866 14.0234L3.84766 16.5359C5.50266 19.7744 8.86366 21.9964 12.7502 21.9964Z" fill="#4CAF50"/>
<path d="M22.5555 10.0415H21.75V10H12.75V14H18.4015C18.0071 15.1082 17.2967 16.0766 16.358 16.7855L16.3595 16.7845L19.4545 19.4035C19.2355 19.6025 22.75 17 22.75 12C22.75 11.3295 22.681 10.675 22.5555 10.0415Z" fill="#1976D2"/>
</svg>
