<svg width="6" height="6" viewBox="0 0 6 6" fill="none" xmlns="http://www.w3.org/2000/svg">
<path d="M3.23864 5.86364C2.7803 5.86364 2.36174 5.75189 1.98295 5.52841C1.60417 5.30114 1.30114 4.99811 1.07386 4.61932C0.850379 4.24053 0.738636 3.82197 0.738636 3.36364C0.738636 2.90152 0.850379 2.48295 1.07386 2.10795C1.30114 1.72917 1.60417 1.42803 1.98295 1.20455C2.36174 0.977272 2.7803 0.863636 3.23864 0.863636C3.70076 0.863636 4.11932 0.977272 4.49432 1.20455C4.87311 1.42803 5.17424 1.72917 5.39773 2.10795C5.625 2.48295 5.73864 2.90152 5.73864 3.36364C5.73864 3.82197 5.625 4.24053 5.39773 4.61932C5.17424 4.99811 4.87311 5.30114 4.49432 5.52841C4.11932 5.75189 3.70076 5.86364 3.23864 5.86364Z" fill="#666666"/>
</svg>
