<svg width="16" height="16" viewBox="0 0 16 16" fill="none" xmlns="http://www.w3.org/2000/svg">
<g id="Group">
<g id="Group_2">
<path id="Path" d="M7.99884 8.80479V8.64479C7.99884 8.12013 8.32284 7.83613 8.64818 7.61813C8.96551 7.40479 9.28351 7.12613 9.28351 6.61213C9.28351 5.90279 8.70884 5.32812 7.99951 5.32812C7.29018 5.32812 6.71484 5.90146 6.71484 6.61079" stroke="#545A67" stroke-width="1.5" stroke-linecap="round" stroke-linejoin="round"/>
<path id="Path_2" d="M8.00064 10.6158C7.93664 10.6158 7.88464 10.6678 7.88531 10.7318C7.88531 10.7958 7.93731 10.8478 8.00131 10.8478C8.06531 10.8478 8.11731 10.7958 8.11731 10.7318C8.11731 10.6671 8.06531 10.6158 8.00064 10.6158" stroke="#545A67" stroke-width="1.5" stroke-linecap="round" stroke-linejoin="round"/>
<path id="Path_3" d="M12.1724 10.0853L13.3638 10.6807C13.7684 9.87333 14.0018 8.96467 14.0018 8C14.0018 4.686 11.3158 2 8.00177 2C6.5331 2 5.18977 2.52933 4.14844 3.40667" stroke="#545A67" stroke-width="1.5" stroke-linecap="round" stroke-linejoin="round"/>
<path id="Path_4" d="M3.82933 5.91631L2.638 5.32031C2.23333 6.12831 2 7.03698 2 8.00165C2 11.315 4.686 14.0016 8 14.0016C9.46867 14.0016 10.812 13.4723 11.8533 12.595" stroke="#545A67" stroke-width="1.5" stroke-linecap="round" stroke-linejoin="round"/>
</g>
</g>
</svg>
