<svg width="20" height="20" viewBox="0 0 20 20" fill="none" xmlns="http://www.w3.org/2000/svg">
    <path d="M9.99982 6.66927C9.88482 6.66927 9.79149 6.7626 9.79232 6.8776C9.79232 6.9926 9.88565 7.08594 10.0007 7.08594C10.1157 7.08594 10.209 6.9926 10.209 6.8776C10.209 6.7626 10.1157 6.66927 9.99982 6.66927"
          stroke="#545A67" stroke-width="1.5" stroke-linecap="round" stroke-linejoin="round"/>
    <path fill-rule="evenodd" clip-rule="evenodd"
          d="M10 17.5V17.5C5.8575 17.5 2.5 14.1425 2.5 10V10C2.5 5.8575 5.8575 2.5 10 2.5V2.5C14.1425 2.5 17.5 5.8575 17.5 10V10C17.5 14.1425 14.1425 17.5 10 17.5Z"
          stroke="#545A67" stroke-width="1.5" stroke-linecap="round" stroke-linejoin="round"/>
    <path d="M10.0007 10V14.1667" stroke="#545A67" stroke-width="1.5" stroke-linecap="round" stroke-linejoin="round"/>
</svg>
