<svg width="20" height="20" viewBox="0 0 20 20" fill="none" xmlns="http://www.w3.org/2000/svg">
<path d="M4.16667 14.1666V3.81349C4.16666 3.51626 4.32496 3.24153 4.58212 3.09248L5.40954 2.61291C5.66698 2.46369 5.98445 2.46305 6.24248 2.61125L7.49652 3.33154L7.50052 3.33331C7.52275 3.32023 8.26108 2.89223 8.74498 2.61174C9.00189 2.4629 9.31876 2.46274 9.57582 2.61133L10.8299 3.33163H10.8368L12.0908 2.61131C12.3489 2.46311 12.6663 2.46375 12.9238 2.61297L14.1632 3.33131H14.1701L15.4242 2.61101C15.6822 2.4628 15.9997 2.46342 16.2571 2.61263L17.0845 3.09221C17.3417 3.24125 17.5 3.51597 17.5 3.81319V16.25C17.5 16.9403 16.9404 17.5 16.25 17.5V17.5C15.5596 17.5 15 16.9403 15 16.25V15C15 14.5397 14.6269 14.1666 14.1667 14.1666H3.33333C2.8731 14.1666 2.5 14.5397 2.5 15V15.8333C2.5 16.7538 3.24619 17.5 4.16667 17.5H16.25" stroke="#545A67" stroke-width="1.5" stroke-linecap="round" stroke-linejoin="round"/>
<path d="M10.8329 10.4167H7.50293" stroke="#545A67" stroke-width="1.5" stroke-linecap="round" stroke-linejoin="round"/>
<path d="M10.8329 7.50065H7.50293" stroke="#545A67" stroke-width="1.5" stroke-linecap="round" stroke-linejoin="round"/>
<path d="M14.1663 10.4167H13.333" stroke="#545A67" stroke-width="1.5" stroke-linecap="round" stroke-linejoin="round"/>
<path d="M14.1663 7.50065H13.333" stroke="#545A67" stroke-width="1.5" stroke-linecap="round" stroke-linejoin="round"/>
</svg>
