<svg width="20" height="21" viewBox="0 0 20 21" fill="none" xmlns="http://www.w3.org/2000/svg">
<path d="M1.66699 6.05859L8.47109 10.8215C9.02207 11.2071 9.29756 11.4 9.59721 11.4747C9.8619 11.5407 10.1387 11.5407 10.4034 11.4747C10.7031 11.4 10.9786 11.2071 11.5296 10.8215L18.3337 6.05859M5.66699 16.8919H14.3337C15.7338 16.8919 16.4339 16.8919 16.9686 16.6194C17.439 16.3798 17.8215 15.9973 18.0612 15.5269C18.3337 14.9921 18.3337 14.2921 18.3337 12.8919V7.55859C18.3337 6.15846 18.3337 5.4584 18.0612 4.92362C17.8215 4.45321 17.439 4.07076 16.9686 3.83108C16.4339 3.55859 15.7338 3.55859 14.3337 3.55859H5.66699C4.26686 3.55859 3.5668 3.55859 3.03202 3.83108C2.56161 4.07076 2.17916 4.45321 1.93948 4.92362C1.66699 5.4584 1.66699 6.15846 1.66699 7.55859V12.8919C1.66699 14.2921 1.66699 14.9921 1.93948 15.5269C2.17916 15.9973 2.56161 16.3798 3.03202 16.6194C3.5668 16.8919 4.26686 16.8919 5.66699 16.8919Z" stroke="#707276" stroke-width="1.66667" stroke-linecap="round" stroke-linejoin="round"/>
</svg>
