<svg width="13" height="382" viewBox="0 0 13 382" fill="none" xmlns="http://www.w3.org/2000/svg">
<mask id="path-1-inside-1_2_321" fill="white">
<path d="M0 14H13V22H8C3.58172 22 0 18.4183 0 14V14Z"/>
</mask>
<path d="M0 14H13H0ZM13 24H8C2.47715 24 -2 19.5228 -2 14H2C2 17.3137 4.68629 20 8 20H13V24ZM8 24C2.47715 24 -2 19.5228 -2 14H2C2 17.3137 4.68629 20 8 20V24ZM13 14V22V14Z" fill="#DCDFE1" mask="url(#path-1-inside-1_2_321)"/>
<mask id="path-3-inside-2_2_321" fill="white">
<path d="M0 54H13V62H8C3.58172 62 0 58.4183 0 54V54Z"/>
</mask>
<path d="M0 54H13H0ZM13 64H8C2.47715 64 -2 59.5228 -2 54H2C2 57.3137 4.68629 60 8 60H13V64ZM8 64C2.47715 64 -2 59.5228 -2 54H2C2 57.3137 4.68629 60 8 60V64ZM13 54V62V54Z" fill="#DCDFE1" mask="url(#path-3-inside-2_2_321)"/>
<mask id="path-5-inside-3_2_321" fill="white">
<path d="M0 94H13V102H8C3.58172 102 0 98.4183 0 94V94Z"/>
</mask>
<path d="M0 94H13H0ZM13 104H8C2.47715 104 -2 99.5228 -2 94H2C2 97.3137 4.68629 100 8 100H13V104ZM8 104C2.47715 104 -2 99.5228 -2 94H2C2 97.3137 4.68629 100 8 100V104ZM13 94V102V94Z" fill="#DCDFE1" mask="url(#path-5-inside-3_2_321)"/>
<mask id="path-7-inside-4_2_321" fill="white">
<path d="M0 134H13V142H8C3.58172 142 0 138.418 0 134V134Z"/>
</mask>
<path d="M0 134H13H0ZM13 144H8C2.47715 144 -2 139.523 -2 134H2C2 137.314 4.68629 140 8 140H13V144ZM8 144C2.47715 144 -2 139.523 -2 134H2C2 137.314 4.68629 140 8 140V144ZM13 134V142V134Z" fill="#DCDFE1" mask="url(#path-7-inside-4_2_321)"/>
<mask id="path-9-inside-5_2_321" fill="white">
<path d="M0 174H13V182H8C3.58172 182 0 178.418 0 174V174Z"/>
</mask>
<path d="M0 174H13H0ZM13 184H8C2.47715 184 -2 179.523 -2 174H2C2 177.314 4.68629 180 8 180H13V184ZM8 184C2.47715 184 -2 179.523 -2 174H2C2 177.314 4.68629 180 8 180V184ZM13 174V182V174Z" fill="#DCDFE1" mask="url(#path-9-inside-5_2_321)"/>
<mask id="path-11-inside-6_2_321" fill="white">
<path d="M0 214H13V222H8C3.58172 222 0 218.418 0 214V214Z"/>
</mask>
<path d="M0 214H13H0ZM13 224H8C2.47715 224 -2 219.523 -2 214H2C2 217.314 4.68629 220 8 220H13V224ZM8 224C2.47715 224 -2 219.523 -2 214H2C2 217.314 4.68629 220 8 220V224ZM13 214V222V214Z" fill="#DCDFE1" mask="url(#path-11-inside-6_2_321)"/>
<mask id="path-13-inside-7_2_321" fill="white">
<path d="M0 254H13V262H8C3.58172 262 0 258.418 0 254V254Z"/>
</mask>
<path d="M0 254H13H0ZM13 264H8C2.47715 264 -2 259.523 -2 254H2C2 257.314 4.68629 260 8 260H13V264ZM8 264C2.47715 264 -2 259.523 -2 254H2C2 257.314 4.68629 260 8 260V264ZM13 254V262V254Z" fill="#DCDFE1" mask="url(#path-13-inside-7_2_321)"/>
<mask id="path-15-inside-8_2_321" fill="white">
<path d="M0 294H13V302H8C3.58172 302 0 298.418 0 294V294Z"/>
</mask>
<path d="M0 294H13H0ZM13 304H8C2.47715 304 -2 299.523 -2 294H2C2 297.314 4.68629 300 8 300H13V304ZM8 304C2.47715 304 -2 299.523 -2 294H2C2 297.314 4.68629 300 8 300V304ZM13 294V302V294Z" fill="#DCDFE1" mask="url(#path-15-inside-8_2_321)"/>
<mask id="path-17-inside-9_2_321" fill="white">
<path d="M0 334H13V342H8C3.58172 342 0 338.418 0 334V334Z"/>
</mask>
<path d="M0 334H13H0ZM13 344H8C2.47715 344 -2 339.523 -2 334H2C2 337.314 4.68629 340 8 340H13V344ZM8 344C2.47715 344 -2 339.523 -2 334H2C2 337.314 4.68629 340 8 340V344ZM13 334V342V334Z" fill="#DCDFE1" mask="url(#path-17-inside-9_2_321)"/>
<mask id="path-19-inside-10_2_321" fill="white">
<path d="M0 374H13V382H8C3.58172 382 0 378.418 0 374V374Z"/>
</mask>
<path d="M0 374H13H0ZM13 384H8C2.47715 384 -2 379.523 -2 374H2C2 377.314 4.68629 380 8 380H13V384ZM8 384C2.47715 384 -2 379.523 -2 374H2C2 377.314 4.68629 380 8 380V384ZM13 374V382V374Z" fill="#DCDFE1" mask="url(#path-19-inside-10_2_321)"/>
<rect width="2" height="374.432" fill="#DCDFE1"/>
</svg>
