<svg width="24" height="24" viewBox="0 0 24 24" fill="none" xmlns="http://www.w3.org/2000/svg">
<g id="Group">
<g id="Group_2">
<path id="Path" fill-rule="evenodd" clip-rule="evenodd" d="M20 21H4C2.895 21 2 20.105 2 19V5C2 3.895 2.895 3 4 3H20C21.105 3 22 3.895 22 5V19C22 20.105 21.105 21 20 21Z" stroke="black" stroke-width="1.5" stroke-linecap="round" stroke-linejoin="round"/>
<path id="Path_2" d="M2 8H22" stroke="black" stroke-width="1.5" stroke-linecap="round" stroke-linejoin="round"/>
<path id="Path_3" d="M4.77881 5.49012C4.77581 5.49012 4.77381 5.49212 4.77381 5.49512C4.77381 5.49812 4.77581 5.50012 4.77881 5.50012C4.78181 5.50012 4.78381 5.49812 4.78381 5.49512C4.78381 5.49212 4.78181 5.49012 4.77881 5.49012" stroke="black" stroke-width="1.5" stroke-linecap="round" stroke-linejoin="round"/>
<path id="Path_4" d="M7.32178 5.49012C7.31878 5.49012 7.31678 5.49212 7.31678 5.49512C7.31678 5.49812 7.31978 5.50012 7.32178 5.50012C7.32478 5.50012 7.32678 5.49812 7.32678 5.49512C7.32678 5.49212 7.32478 5.49012 7.32178 5.49012" stroke="black" stroke-width="1.5" stroke-linecap="round" stroke-linejoin="round"/>
<path id="Path_5" d="M9.86084 5.49012C9.85784 5.49012 9.85584 5.49212 9.85584 5.49512C9.85584 5.49812 9.85784 5.50012 9.86084 5.50012C9.86384 5.50012 9.86584 5.49812 9.86584 5.49512C9.86584 5.49212 9.86384 5.49012 9.86084 5.49012" stroke="black" stroke-width="1.5" stroke-linecap="round" stroke-linejoin="round"/>
<path id="Path_6" d="M16.9262 12L14.0002 16L10.0002 13L7.07422 17" stroke="black" stroke-width="1.5" stroke-linecap="round" stroke-linejoin="round"/>
</g>
</g>
</svg>
