<svg width="24" height="24" viewBox="0 0 24 24" fill="none" xmlns="http://www.w3.org/2000/svg">
<path fill-rule="evenodd" clip-rule="evenodd" d="M17.5028 17.357C18.5503 17.357 19.4003 16.5096 19.4036 15.4622V15.4622V15.4622C19.403 14.9292 19.1902 14.4184 18.8124 14.0426L17.5529 12.7821V9.0375C17.5526 7.56566 16.9673 6.15428 15.9259 5.11419C14.8845 4.0741 13.4724 3.4906 12.0005 3.49219V3.49219C8.93897 3.49385 6.45779 5.97592 6.45724 9.0375V12.7791L5.19772 14.0396C4.81959 14.4153 4.60651 14.9261 4.60547 15.4592V15.4592V15.4592C4.60878 16.5066 5.45882 17.354 6.50626 17.354L17.5028 17.357Z" stroke="#B5B7BF" stroke-width="1.5" stroke-linecap="round" stroke-linejoin="round"/>
<path d="M10.5195 20.5002H13.4778" stroke="#B5B7BF" stroke-width="1.5" stroke-linecap="round" stroke-linejoin="round"/>
<rect x="13" y="2" width="8" height="8" rx="4" fill="#FF4D4F"/>
</svg>
