<svg width="24" height="24" viewBox="0 0 24 24" fill="none" xmlns="http://www.w3.org/2000/svg">
<path fill-rule="evenodd" clip-rule="evenodd" d="M20.5412 14.5983L20.0795 14.8649C19.1509 15.401 18.5789 16.3917 18.5788 17.464V17.9972C18.5788 19.0694 18.0068 20.0601 17.0782 20.5962C16.1496 21.1323 15.0056 21.1323 14.077 20.5963L13.6152 20.3296C12.6867 19.7935 11.5426 19.7935 10.614 20.3296L10.1522 20.5963C9.22365 21.1323 8.07963 21.1323 7.15107 20.5962C6.22251 20.0601 5.65047 19.0694 5.65043 17.9972V17.464C5.6504 16.3917 5.07837 15.401 4.1498 14.8649L3.68806 14.5983C2.75951 14.0621 2.1875 13.0714 2.1875 11.9992C2.1875 10.9269 2.75951 9.93616 3.68806 9.40003L4.14984 9.13343C5.07841 8.59732 5.65044 7.60657 5.65047 6.53435V6.00113C5.65051 4.92892 6.22255 3.93818 7.15111 3.40208C8.07967 2.86599 9.22369 2.86597 10.1523 3.40205L10.6141 3.66867C11.5426 4.20478 12.6867 4.20478 13.6153 3.66867L14.0771 3.40205C15.0057 2.86597 16.1497 2.86599 17.0782 3.40208C18.0068 3.93818 18.5788 4.92892 18.5789 6.00113V6.53435C18.5789 7.60657 19.1509 8.59732 20.0795 9.13343L20.5413 9.40003C21.4698 9.93617 22.0418 10.927 22.0418 11.9992C22.0418 13.0714 21.4698 14.0622 20.5412 14.5983Z" stroke="black" stroke-width="1.5" stroke-linecap="round" stroke-linejoin="round"/>
<circle cx="12.0013" cy="12.0013" r="3.00125" stroke="black" stroke-width="1.5" stroke-linecap="round" stroke-linejoin="round"/>
</svg>
