<svg width="20" height="21" viewBox="0 0 20 21" fill="none" xmlns="http://www.w3.org/2000/svg">
<path d="M9.16699 3.55878H3.33366C2.89163 3.55878 2.46771 3.73438 2.15515 4.04694C1.84259 4.3595 1.66699 4.78342 1.66699 5.22545V16.8921C1.66699 17.3341 1.84259 17.7581 2.15515 18.0706C2.46771 18.3832 2.89163 18.5588 3.33366 18.5588H15.0003C15.4424 18.5588 15.8663 18.3832 16.1788 18.0706C16.4914 17.7581 16.667 17.3341 16.667 16.8921V11.0588M15.417 2.30878C15.7485 1.97726 16.1982 1.79102 16.667 1.79102C17.1358 1.79102 17.5855 1.97726 17.917 2.30878C18.2485 2.6403 18.4348 3.08994 18.4348 3.55878C18.4348 4.02762 18.2485 4.47726 17.917 4.80878L10.0003 12.7254L6.66699 13.5588L7.50033 10.2254L15.417 2.30878Z" stroke="#11141A" stroke-linecap="round" stroke-linejoin="round"/>
</svg>
