<svg width="20" height="20" viewBox="0 0 20 20" fill="none" xmlns="http://www.w3.org/2000/svg">
<path d="M5.18359 4.25833C6.48526 3.16167 8.16443 2.5 10.0003 2.5C14.1428 2.5 17.5003 5.8575 17.5003 10C17.5003 11.2058 17.2086 12.3417 16.7028 13.3508L14.4686 12.2342" stroke="#545A67" stroke-width="1.5" stroke-linecap="round" stroke-linejoin="round"/>
<path d="M14.8167 15.7409C13.515 16.8376 11.8358 17.4993 10 17.4993C5.8575 17.4993 2.5 14.1409 2.5 9.99927C2.5 8.79344 2.79167 7.6576 3.2975 6.64844L5.53167 7.7651" stroke="#545A67" stroke-width="1.5" stroke-linecap="round" stroke-linejoin="round"/>
<path d="M9.99967 5.83398V6.87565" stroke="#545A67" stroke-width="1.5" stroke-linecap="round" stroke-linejoin="round"/>
<path d="M9.99967 14.1667V13.125" stroke="#545A67" stroke-width="1.5" stroke-linecap="round" stroke-linejoin="round"/>
<path d="M12.0728 8.33333C12.0187 7.52 11.3478 6.875 10.5212 6.875H9.37949C8.57116 6.875 7.91699 7.53 7.91699 8.3375C7.91699 9.00833 8.37366 9.59333 9.02366 9.75667L10.9762 10.2467C11.627 10.41 12.0828 10.995 12.0828 11.6658C12.0828 12.4742 11.4278 13.1283 10.6203 13.1283H9.47866C8.65033 13.1283 7.97949 12.4817 7.92616 11.6667" stroke="#545A67" stroke-width="1.5" stroke-linecap="round" stroke-linejoin="round"/>
</svg>
