<svg width="24" height="24" viewBox="0 0 24 24" fill="none" xmlns="http://www.w3.org/2000/svg">
<g id="Group">
<path id="Path" fill-rule="evenodd" clip-rule="evenodd" d="M10.9714 10.2L16.5856 4.58575C17.3667 3.80471 18.633 3.80471 19.414 4.58575V4.58575C19.7891 4.96083 19.9998 5.46953 19.9998 5.99997C19.9998 6.5304 19.7891 7.03911 19.414 7.41418L13.7998 13.0285C13.4173 13.411 12.9211 13.6591 12.3856 13.7356L10.5707 13.9949C10.4149 14.0171 10.2577 13.9647 10.1465 13.8534C10.0352 13.7421 9.98277 13.585 10.005 13.4292L10.2643 11.6143C10.3408 11.0788 10.5889 10.5825 10.9714 10.2V10.2Z" stroke="#707276" stroke-width="1.5" stroke-linecap="round" stroke-linejoin="round"/>
<path id="Path_2" d="M17.7088 9.11966L14.8804 6.29123" stroke="#707276" stroke-width="1.5" stroke-linecap="round" stroke-linejoin="round"/>
<path id="Path_3" d="M13.0001 3.05864C9.18542 2.62152 5.51158 4.64518 3.84233 8.10304C2.17308 11.5609 2.8737 15.6963 5.58877 18.4114C8.30384 21.1264 12.4392 21.8271 15.8971 20.1578C19.355 18.4886 21.3786 14.8147 20.9415 11" stroke="#707276" stroke-width="1.5" stroke-linecap="round" stroke-linejoin="round"/>
</g>
</svg>
