<svg width="20" height="20" viewBox="0 0 20 20" fill="none" xmlns="http://www.w3.org/2000/svg">
<path d="M11.666 6.66667H15.8327M12.4993 10H15.8327M14.166 13.3333H15.8327M9.99935 13.6083C9.88268 12.4 8.92435 11.45 7.71602 11.3417C7.29935 11.3 6.87435 11.3 6.44935 11.3417C5.24102 11.4583 4.28268 12.4 4.16602 13.6083M14.166 17.5H5.83268C2.49935 17.5 1.66602 16.6667 1.66602 13.3333V6.66667C1.66602 3.33333 2.49935 2.5 5.83268 2.5H14.166C17.4993 2.5 18.3327 3.33333 18.3327 6.66667V13.3333C18.3327 16.6667 17.4993 17.5 14.166 17.5ZM8.59102 7.9C8.59102 8.73303 7.91571 9.40833 7.08268 9.40833C6.24965 9.40833 5.57435 8.73303 5.57435 7.9C5.57435 7.06697 6.24965 6.39167 7.08268 6.39167C7.91571 6.39167 8.59102 7.06697 8.59102 7.9Z" stroke="#545A67" stroke-width="1.5" stroke-linecap="round" stroke-linejoin="round"/>
</svg>
