<svg width="112" height="112" viewBox="0 0 112 112" fill="none" xmlns="http://www.w3.org/2000/svg">
<g id="Frame 1597880738">
<path id="Ellipse 2327" d="M112 56C112 86.9279 86.9279 112 56 112C25.0721 112 0 86.9279 0 56C0 25.0721 25.0721 0 56 0C86.9279 0 112 25.0721 112 56ZM11.363 56C11.363 80.6523 31.3477 100.637 56 100.637C80.6523 100.637 100.637 80.6523 100.637 56C100.637 31.3477 80.6523 11.363 56 11.363C31.3477 11.363 11.363 31.3477 11.363 56Z" fill="#FFEDED"/>
<path id="Ellipse 2328" d="M112 56C112 43.9602 108.12 32.241 100.935 22.5803C93.7495 12.9195 83.6422 5.83163 72.1115 2.36773C60.5808 -1.09617 48.2407 -0.751644 36.9212 3.35022C25.6017 7.45209 15.9056 15.0929 9.2707 25.1395C2.63581 35.1861 -0.584528 47.1035 0.0872352 59.1245C0.758998 71.1456 5.28709 82.63 13 91.8748C20.713 101.12 31.2 107.633 42.9061 110.448C54.6121 113.263 66.9137 112.23 77.9867 107.503L73.5254 97.0527C64.6992 100.821 54.8937 101.644 45.563 99.3997C36.2322 97.1557 27.8731 91.9644 21.7252 84.5954C15.5773 77.2265 11.968 68.0724 11.4325 58.4905C10.8971 48.9087 13.464 39.4094 18.7526 31.4014C24.0412 23.3933 31.7698 17.303 40.7925 14.0334C49.8151 10.7639 59.6513 10.4892 68.8423 13.2503C78.0333 16.0113 86.0898 21.661 91.8169 29.3615C97.5441 37.062 100.637 46.4032 100.637 56H112Z" fill="#FF4D4F"/>
</g>
</svg>
