<svg width="20" height="20" viewBox="0 0 20 20" fill="none" xmlns="http://www.w3.org/2000/svg">
<path d="M17.3271 7.93518C17.9855 8.59353 17.9855 9.66094 17.3271 10.3193C16.6688 10.9777 15.6013 10.9777 14.943 10.3193C14.2846 9.66094 14.2846 8.59353 14.943 7.93518C15.6013 7.27682 16.6688 7.27682 17.3271 7.93518" stroke="#545A67" stroke-width="1.5" stroke-linecap="round" stroke-linejoin="round"/>
<path d="M11.8347 4.92632C12.8484 5.94005 12.8484 7.58364 11.8347 8.59738C10.821 9.61112 9.17736 9.61112 8.16362 8.59738C7.14989 7.58365 7.14989 5.94006 8.16362 4.92632C9.17735 3.91258 10.8209 3.91258 11.8347 4.92632" stroke="#545A67" stroke-width="1.5" stroke-linecap="round" stroke-linejoin="round"/>
<path d="M5.05661 7.93518C5.71496 8.59353 5.71496 9.66094 5.05661 10.3193C4.39825 10.9777 3.33084 10.9777 2.67248 10.3193C2.01412 9.66094 2.01412 8.59353 2.67248 7.93518C3.33084 7.27682 4.39825 7.27682 5.05661 7.93518" stroke="#545A67" stroke-width="1.5" stroke-linecap="round" stroke-linejoin="round"/>
<path d="M19.1659 15.8326V14.9193C19.1659 13.7684 18.2334 12.8359 17.0825 12.8359H16.415" stroke="#545A67" stroke-width="1.5" stroke-linecap="round" stroke-linejoin="round"/>
<path d="M0.833008 15.8326V14.9193C0.833008 13.7684 1.76551 12.8359 2.91634 12.8359H3.58384" stroke="#545A67" stroke-width="1.5" stroke-linecap="round" stroke-linejoin="round"/>
<path d="M14.449 15.8329V14.4987C14.449 12.8879 13.1431 11.582 11.5323 11.582H8.46647C6.85564 11.582 5.5498 12.8879 5.5498 14.4987V15.8329" stroke="#545A67" stroke-width="1.5" stroke-linecap="round" stroke-linejoin="round"/>
</svg>
