<svg width="24" height="24" viewBox="0 0 24 24" fill="none" xmlns="http://www.w3.org/2000/svg">
<g id="Group">
<g id="Group_2">
<path id="Path" fill-rule="evenodd" clip-rule="evenodd" d="M20 21H4C2.895 21 2 20.105 2 19V5C2 3.895 2.895 3 4 3H20C21.105 3 22 3.895 22 5V19C22 20.105 21.105 21 20 21Z" stroke="black" stroke-width="1.5" stroke-linecap="round" stroke-linejoin="round"/>
<path id="Path_2" d="M2 8H22" stroke="black" stroke-width="1.5" stroke-linecap="round" stroke-linejoin="round"/>
<path id="Path_3" d="M4.77905 5.49012C4.77605 5.49012 4.77405 5.49212 4.77405 5.49512C4.77405 5.49812 4.77605 5.50012 4.77905 5.50012C4.78205 5.50012 4.78405 5.49812 4.78405 5.49512C4.78405 5.49212 4.78205 5.49012 4.77905 5.49012" stroke="black" stroke-width="1.5" stroke-linecap="round" stroke-linejoin="round"/>
<path id="Path_4" d="M7.32202 5.49012C7.31902 5.49012 7.31702 5.49212 7.31702 5.49512C7.31702 5.49812 7.32002 5.50012 7.32202 5.50012C7.32502 5.50012 7.32702 5.49812 7.32702 5.49512C7.32702 5.49212 7.32502 5.49012 7.32202 5.49012" stroke="black" stroke-width="1.5" stroke-linecap="round" stroke-linejoin="round"/>
<path id="Path_5" d="M9.86108 5.49012C9.85808 5.49012 9.85608 5.49212 9.85608 5.49512C9.85608 5.49812 9.85808 5.50012 9.86108 5.50012C9.86408 5.50012 9.86608 5.49812 9.86608 5.49512C9.86608 5.49212 9.86408 5.49012 9.86108 5.49012" stroke="black" stroke-width="1.5" stroke-linecap="round" stroke-linejoin="round"/>
<path id="Path_6" d="M13.71 14.0001V12.7101C13.71 11.6291 12.599 10.6711 11.403 11.1091C10.715 11.3611 10.291 12.0611 10.291 12.7931V14.0001" stroke="black" stroke-width="1.5" stroke-linecap="round" stroke-linejoin="round"/>
<path id="Path_7" fill-rule="evenodd" clip-rule="evenodd" d="M14 17.5H10C9.448 17.5 9 17.052 9 16.5V15C9 14.448 9.448 14 10 14H14C14.552 14 15 14.448 15 15V16.5C15 17.052 14.552 17.5 14 17.5Z" stroke="black" stroke-width="1.5" stroke-linecap="round" stroke-linejoin="round"/>
</g>
</g>
</svg>
