<svg width="20" height="20" viewBox="0 0 20 20" fill="none" xmlns="http://www.w3.org/2000/svg">
<path d="M15.3033 4.6967C18.2322 7.62563 18.2322 12.3744 15.3033 15.3033C12.3744 18.2322 7.62562 18.2322 4.6967 15.3033C1.76777 12.3744 1.76777 7.62562 4.6967 4.6967C7.62563 1.76777 12.3744 1.76777 15.3033 4.6967" stroke="#545A67" stroke-width="1.5" stroke-linecap="round" stroke-linejoin="round"/>
<path fill-rule="evenodd" clip-rule="evenodd" d="M12.4997 13.334H10.833V6.66732C10.833 6.20732 11.2063 5.83398 11.6663 5.83398H12.4997C12.9597 5.83398 13.333 6.20732 13.333 6.66732V12.5007C13.333 12.9607 12.9597 13.334 12.4997 13.334Z" stroke="#545A67" stroke-width="1.5" stroke-linecap="round" stroke-linejoin="round"/>
<path d="M10.833 13.334H8.33301V9.16732C8.33301 8.70732 8.70634 8.33398 9.16634 8.33398H10.833" stroke="#545A67" stroke-width="1.5" stroke-linecap="round" stroke-linejoin="round"/>
<path d="M8.33301 13.334H6.66634C6.20634 13.334 5.83301 12.9607 5.83301 12.5007V11.6673C5.83301 11.2073 6.20634 10.834 6.66634 10.834H8.33301" stroke="#545A67" stroke-width="1.5" stroke-linecap="round" stroke-linejoin="round"/>
</svg>
