<svg width="24" height="24" viewBox="0 0 24 24" fill="none" xmlns="http://www.w3.org/2000/svg">
<g id="Group">
<g id="Group_2">
<path id="Path" d="M17.9243 3.992H16.0913V5.825" stroke="white" stroke-width="1.5" stroke-linecap="round" stroke-linejoin="round"/>
<path id="Path_2" d="M12 20.556C14.19 20.556 16.379 19.721 18.05 18.05C21.391 14.709 21.391 9.29199 18.05 5.95099C17.456 5.35699 16.794 4.87299 16.091 4.48999" stroke="white" stroke-width="1.5" stroke-linecap="round" stroke-linejoin="round"/>
<path id="Path_3" fill-rule="evenodd" clip-rule="evenodd" d="M12.0001 6.95801C9.31115 9.74901 9.31115 14.25 12.0001 17.041C14.6891 14.251 14.6891 9.74901 12.0001 6.95801Z" stroke="white" stroke-width="1.5" stroke-linecap="round" stroke-linejoin="round"/>
<path id="Path_4" d="M12 6.95801C14.791 6.95801 17.042 9.20901 17.042 12C17.042 14.791 14.791 17.042 12 17.042" stroke="white" stroke-width="1.5" stroke-linecap="round" stroke-linejoin="round"/>
<path id="Path_5" d="M12 17.042C9.20901 17.042 6.95801 14.791 6.95801 12C6.95801 9.20901 9.20901 6.95801 12 6.95801" stroke="white" stroke-width="1.5" stroke-linecap="round" stroke-linejoin="round"/>
<path id="Path_6" d="M6.95996 12H17.04" stroke="white" stroke-width="1.5" stroke-linecap="round" stroke-linejoin="round"/>
<path id="Path_7" d="M7.90917 18.175V20.008H6.07617" stroke="white" stroke-width="1.5" stroke-linecap="round" stroke-linejoin="round"/>
<path id="Path_8" d="M7.90909 19.51C7.20709 19.127 6.54509 18.644 5.95009 18.049C2.60909 14.708 2.60909 9.291 5.95009 5.95V5.945C7.62109 4.274 9.81009 3.439 12.0001 3.439" stroke="white" stroke-width="1.5" stroke-linecap="round" stroke-linejoin="round"/>
</g>
</g>
</svg>
