<svg width="24" height="24" viewBox="0 0 24 24" fill="none" xmlns="http://www.w3.org/2000/svg">
<g id="Group">
<path id="Path" d="M12 21V16.5" stroke="black" stroke-width="1.5" stroke-linecap="round" stroke-linejoin="round"/>
<path id="Path_2" d="M9 15H5C3.89543 15 3 14.1046 3 13V5C3 3.89543 3.89543 3 5 3H19C20.1046 3 21 3.89543 21 5V13C21 14.1046 20.1046 15 19 15H15" stroke="black" stroke-width="1.5" stroke-linecap="round" stroke-linejoin="round"/>
<path id="Path_3" fill-rule="evenodd" clip-rule="evenodd" d="M14 16.5H10C9.44772 16.5 9 16.0523 9 15.5V14.5C9 13.9477 9.44772 13.5 10 13.5H14C14.5523 13.5 15 13.9477 15 14.5V15.5C15 16.0523 14.5523 16.5 14 16.5Z" stroke="black" stroke-width="1.5" stroke-linecap="round" stroke-linejoin="round"/>
<path id="Path_4" d="M8 21H16" stroke="black" stroke-width="1.5" stroke-linecap="round" stroke-linejoin="round"/>
<path id="Path_5" d="M8 7H16" stroke="black" stroke-width="1.5" stroke-linecap="round" stroke-linejoin="round"/>
<path id="Path_6" d="M10 10H14" stroke="black" stroke-width="1.5" stroke-linecap="round" stroke-linejoin="round"/>
</g>
</svg>
