<svg width="24" height="24" viewBox="0 0 24 24" fill="none" xmlns="http://www.w3.org/2000/svg">
<g id="User Edit">
<path id="icon" d="M18.7002 16.25C19.0002 17.33 19.8402 18.17 20.9202 18.47M3.41016 22C3.41016 18.13 7.26018 15 12.0002 15C13.0402 15 14.0402 15.15 14.9702 15.43M17.0002 7C17.0002 9.76142 14.7616 12 12.0002 12C9.23876 12 7.00018 9.76142 7.00018 7C7.00018 4.23858 9.23876 2 12.0002 2C14.7616 2 17.0002 4.23858 17.0002 7ZM19.2102 15.74L15.6701 19.2801C15.5301 19.4201 15.4002 19.68 15.3702 19.87L15.1802 21.22C15.1102 21.71 15.4502 22.05 15.9402 21.98L17.2901 21.79C17.4801 21.76 17.7502 21.63 17.8802 21.49L21.4201 17.95C22.0301 17.34 22.3201 16.63 21.4201 15.73C20.5301 14.84 19.8202 15.13 19.2102 15.74Z" stroke="#292D32" stroke-width="1.5" stroke-linecap="round" stroke-linejoin="round"/>
</g>
</svg>
