<svg width="13" height="222" viewBox="0 0 13 222" fill="none" xmlns="http://www.w3.org/2000/svg">
<mask id="path-1-inside-1_4_96" fill="white">
<path d="M0 14H13V22H8C3.58172 22 0 18.4183 0 14Z"/>
</mask>
<path d="M0 14H13H0ZM13 24H8C2.47715 24 -2 19.5228 -2 14H2C2 17.3137 4.68629 20 8 20H13V24ZM8 24C2.47715 24 -2 19.5228 -2 14H2C2 17.3137 4.68629 20 8 20V24ZM13 14V22V14Z" fill="#DCDFE1" mask="url(#path-1-inside-1_4_96)"/>
<mask id="path-3-inside-2_4_96" fill="white">
<path d="M0 54H13V62H8C3.58172 62 0 58.4183 0 54Z"/>
</mask>
<path d="M0 54H13H0ZM13 64H8C2.47715 64 -2 59.5228 -2 54H2C2 57.3137 4.68629 60 8 60H13V64ZM8 64C2.47715 64 -2 59.5228 -2 54H2C2 57.3137 4.68629 60 8 60V64ZM13 54V62V54Z" fill="#DCDFE1" mask="url(#path-3-inside-2_4_96)"/>
<mask id="path-5-inside-3_4_96" fill="white">
<path d="M0 94H13V102H8C3.58172 102 0 98.4183 0 94Z"/>
</mask>
<path d="M0 94H13H0ZM13 104H8C2.47715 104 -2 99.5228 -2 94H2C2 97.3137 4.68629 100 8 100H13V104ZM8 104C2.47715 104 -2 99.5228 -2 94H2C2 97.3137 4.68629 100 8 100V104ZM13 94V102V94Z" fill="#DCDFE1" mask="url(#path-5-inside-3_4_96)"/>
<mask id="path-7-inside-4_4_96" fill="white">
<path d="M0 134H13V142H8C3.58172 142 0 138.418 0 134Z"/>
</mask>
<path d="M0 134H13H0ZM13 144H8C2.47715 144 -2 139.523 -2 134H2C2 137.314 4.68629 140 8 140H13V144ZM8 144C2.47715 144 -2 139.523 -2 134H2C2 137.314 4.68629 140 8 140V144ZM13 134V142V134Z" fill="#DCDFE1" mask="url(#path-7-inside-4_4_96)"/>
<mask id="path-9-inside-5_4_96" fill="white">
<path d="M0 174H13V182H8C3.58172 182 0 178.418 0 174Z"/>
</mask>
<path d="M0 174H13H0ZM13 184H8C2.47715 184 -2 179.523 -2 174H2C2 177.314 4.68629 180 8 180H13V184ZM8 184C2.47715 184 -2 179.523 -2 174H2C2 177.314 4.68629 180 8 180V184ZM13 174V182V174Z" fill="#DCDFE1" mask="url(#path-9-inside-5_4_96)"/>
<mask id="path-11-inside-6_4_96" fill="white">
<path d="M0 214H13V222H8C3.58172 222 0 218.418 0 214Z"/>
</mask>
<path d="M0 214H13H0ZM13 224H8C2.47715 224 -2 219.523 -2 214H2C2 217.314 4.68629 220 8 220H13V224ZM8 224C2.47715 224 -2 219.523 -2 214H2C2 217.314 4.68629 220 8 220V224ZM13 214V222V214Z" fill="#DCDFE1" mask="url(#path-11-inside-6_4_96)"/>
<rect width="2" height="214" fill="#DCDFE1"/>
</svg>
