<svg width="32" height="24" viewBox="0 0 32 24" fill="none" xmlns="http://www.w3.org/2000/svg">
<g clip-path="url(#clip0_1603_24557)">
<path d="M9.04759 8.69845C9.04759 9.19053 9.09009 9.58943 9.16422 9.88198C9.25834 10.2111 9.37164 10.5311 9.50322 10.8393C9.55622 10.9457 9.57734 11.052 9.57734 11.1452C9.57734 11.2781 9.51384 11.4111 9.37609 11.5441L8.70859 12.1025C8.61322 12.1824 8.51784 12.2222 8.43297 12.2222C8.32709 12.2222 8.22109 12.1557 8.11509 12.036C7.97221 11.8436 7.84449 11.6343 7.73372 11.4111C7.62772 11.1852 7.52172 10.9323 7.40522 10.6266C6.57864 11.8498 5.54022 12.4615 4.28997 12.4616C3.39997 12.4616 2.68997 12.1424 2.17072 11.5043C1.65159 10.8658 1.38672 10.0148 1.38672 8.95115C1.38672 7.82096 1.70459 6.90347 2.35097 6.21202C2.99722 5.52057 3.85559 5.17484 4.94697 5.17484C5.30722 5.17484 5.67809 5.21468 6.07009 5.28119C6.46222 5.3477 6.86484 5.45406 7.28872 5.57374V4.60308C7.28872 3.59241 7.11909 2.88778 6.79059 2.47555C6.45159 2.06331 5.87934 1.86378 5.06347 1.86378C4.69259 1.86378 4.31122 1.91712 3.91909 2.0368C3.52697 2.15649 3.14559 2.30268 2.77472 2.48888C2.60522 2.5819 2.47809 2.63508 2.40384 2.66174C2.32959 2.68841 2.27672 2.70159 2.23434 2.70159C2.08597 2.70159 2.01184 2.56857 2.01184 2.28935V1.63774C2.01184 1.42504 2.03309 1.26551 2.08597 1.17249C2.13897 1.07931 2.23434 0.986292 2.38272 0.893272C2.75355 0.653795 3.19855 0.454318 3.71772 0.294841C4.23709 0.121978 4.78809 0.0422917 5.37084 0.0422917C6.63184 0.0422917 7.55372 0.401194 8.14709 1.11931C8.72984 1.83727 9.02659 2.92763 9.02659 4.39037V8.69845H9.04759ZM4.74559 10.7196C5.09534 10.7196 5.45559 10.6399 5.83697 10.4803C6.21847 10.3207 6.55759 10.0282 6.84359 9.62927C7.01322 9.37672 7.14034 9.09751 7.20384 8.77829C7.26747 8.45923 7.30984 8.07351 7.30984 7.62143V7.063C6.9885 6.96492 6.66303 6.88945 6.33497 6.83696C6.00462 6.78436 5.67197 6.75769 5.33897 6.75711C4.62897 6.75711 4.10984 6.92998 3.76022 7.28904C3.41059 7.6481 3.24097 8.15335 3.24097 8.81813C3.24097 9.44308 3.36809 9.90849 3.63297 10.2277C3.88734 10.5601 4.25822 10.7196 4.74559 10.7196ZM13.2542 12.1557C13.0635 12.1557 12.9363 12.1159 12.8516 12.0227C12.7668 11.943 12.6926 11.7568 12.6291 11.5043L10.1391 1.22566C10.0753 0.959625 10.0436 0.786762 10.0436 0.693743C10.0436 0.481037 10.1283 0.361194 10.298 0.361194H11.3363C11.5376 0.361194 11.6755 0.401194 11.7496 0.494213C11.8343 0.574056 11.898 0.760252 11.9615 1.0128L13.7416 9.81547L15.3946 1.0128C15.4476 0.746919 15.5112 0.574056 15.5958 0.494213C15.6807 0.414527 15.8291 0.36135 16.0198 0.36135H16.8675C17.0687 0.36135 17.2066 0.401194 17.2912 0.494213C17.3761 0.574056 17.4502 0.760252 17.4926 1.0128L19.1668 9.92182L20.9998 1.0128C21.0633 0.746919 21.1376 0.574056 21.2117 0.494213C21.2965 0.414527 21.4342 0.36135 21.625 0.36135H22.6103C22.78 0.36135 22.8753 0.467703 22.8753 0.693743C22.8753 0.760252 22.8647 0.826762 22.8541 0.906448C22.8435 0.986135 22.8223 1.09264 22.78 1.239L20.2262 11.5174C20.1627 11.7835 20.0886 11.9563 20.0037 12.036C19.919 12.1159 19.7812 12.169 19.6012 12.169H18.69C18.4886 12.169 18.3508 12.1292 18.266 12.036C18.1812 11.943 18.1071 11.7701 18.0647 11.5043L16.4222 2.92762L14.7905 11.4908C14.7376 11.7568 14.674 11.9297 14.5892 12.0227C14.5045 12.1159 14.3561 12.1557 14.1655 12.1557H13.2542ZM26.8701 12.5148C26.3191 12.5148 25.7681 12.4349 25.2383 12.2754C24.7085 12.1159 24.2953 11.9428 24.0198 11.7436C23.8502 11.6238 23.7336 11.4909 23.6913 11.3712C23.6501 11.2538 23.6285 11.1271 23.6277 10.9988V10.3207C23.6277 10.0415 23.7125 9.90849 23.8715 9.90849C23.9364 9.90879 24.0008 9.9223 24.0622 9.94849C24.1257 9.97515 24.2211 10.0282 24.3271 10.0813C24.7013 10.288 25.092 10.4441 25.4926 10.5468C25.9077 10.6524 26.3301 10.7058 26.7536 10.7063C27.4211 10.7063 27.9403 10.5601 28.3006 10.2675C28.6608 9.975 28.8516 9.54959 28.8516 9.00433C28.8516 8.6321 28.7562 8.32621 28.5655 8.07351C28.3747 7.8208 28.0145 7.59492 27.4953 7.38206L25.9588 6.78378C25.1853 6.4779 24.6132 6.02582 24.2635 5.42739C23.9138 4.84229 23.7337 4.19084 23.7337 3.49939C23.7337 2.94096 23.8291 2.44893 24.0198 2.02331C24.2105 1.5979 24.4648 1.22566 24.7827 0.933115C25.1006 0.627233 25.4608 0.401194 25.8847 0.241664C26.3085 0.0821348 26.7535 0.015625 27.2197 0.015625C27.4528 0.015625 27.6966 0.0289583 27.9297 0.0688015C28.1735 0.108645 28.396 0.161821 28.6185 0.214998C28.8303 0.281507 29.0317 0.348017 29.2225 0.42786C29.4131 0.507547 29.5615 0.587285 29.6675 0.667076C29.8158 0.773586 29.9217 0.879939 29.9853 0.999625C30.0489 1.10598 30.0807 1.25223 30.0807 1.43837V2.06331C30.0807 2.34253 29.996 2.48888 29.837 2.48888C29.7522 2.48888 29.6145 2.43555 29.4345 2.32919C28.8303 1.98347 28.1521 1.81061 27.4 1.81061C26.796 1.81061 26.3191 1.93029 25.9906 2.183C25.6622 2.43555 25.4926 2.82127 25.4926 3.36637C25.4926 3.73876 25.5986 4.05782 25.8105 4.31053C26.0223 4.56323 26.4145 4.81578 26.9761 5.04182L28.4807 5.64025C29.2436 5.94614 29.7946 6.37155 30.1231 6.91664C30.4516 7.46174 30.6106 8.08684 30.6106 8.77829C30.6106 9.35006 30.5151 9.86864 30.335 10.3207C30.1443 10.7728 29.89 11.1717 29.5615 11.4909C29.233 11.8233 28.841 12.0627 28.3853 12.2355C27.9085 12.4217 27.4105 12.5148 26.8701 12.5148Z" fill="#252F3E"/>
<path d="M28.8736 18.9785C25.3876 22.2097 20.3226 23.925 15.9677 23.925C9.86436 23.925 4.36511 21.0926 0.211484 16.3855C-0.117016 16.0133 0.179609 15.508 0.571609 15.8004C5.06436 19.0716 10.6061 21.0528 16.3386 21.0528C20.2061 21.0528 24.4551 20.0423 28.3651 17.9679C28.9479 17.6354 29.4459 18.4467 28.8736 18.9785ZM30.3254 16.9041C29.8804 16.1861 27.3796 16.5584 26.2459 16.7312C25.9067 16.7846 25.8537 16.4122 26.1611 16.133C28.1531 14.3777 31.4274 14.8831 31.8087 15.468C32.1902 16.0665 31.7027 20.1752 29.8379 22.1432C29.5519 22.449 29.2764 22.2895 29.4035 21.8906C29.8272 20.5741 30.7704 17.6089 30.3254 16.9041Z" fill="#FF9900"/>
</g>
<defs>
<clipPath id="clip0_1603_24557">
<rect width="32" height="24" fill="white"/>
</clipPath>
</defs>
</svg>
