<svg width="48" height="49" viewBox="0 0 48 49" fill="none" xmlns="http://www.w3.org/2000/svg">
<path d="M24 4.22461C21.3736 4.22461 18.7728 4.74192 16.3463 5.74702C13.9198 6.75211 11.715 8.2253 9.85786 10.0825C6.10714 13.8332 4 18.9203 4 24.2246C4 33.0646 9.74 40.5646 17.68 43.2246C18.68 43.3846 19 42.7646 19 42.2246V38.8446C13.46 40.0446 12.28 36.1646 12.28 36.1646C11.36 33.8446 10.06 33.2246 10.06 33.2246C8.24 31.9846 10.2 32.0246 10.2 32.0246C12.2 32.1646 13.26 34.0846 13.26 34.0846C15 37.1246 17.94 36.2246 19.08 35.7446C19.26 34.4446 19.78 33.5646 20.34 33.0646C15.9 32.5646 11.24 30.8446 11.24 23.2246C11.24 21.0046 12 19.2246 13.3 17.8046C13.1 17.3046 12.4 15.2246 13.5 12.5246C13.5 12.5246 15.18 11.9846 19 14.5646C20.58 14.1246 22.3 13.9046 24 13.9046C25.7 13.9046 27.42 14.1246 29 14.5646C32.82 11.9846 34.5 12.5246 34.5 12.5246C35.6 15.2246 34.9 17.3046 34.7 17.8046C36 19.2246 36.76 21.0046 36.76 23.2246C36.76 30.8646 32.08 32.5446 27.62 33.0446C28.34 33.6646 29 34.8846 29 36.7446V42.2246C29 42.7646 29.32 43.4046 30.34 43.2246C38.28 40.5446 44 33.0646 44 24.2246C44 21.5982 43.4827 18.9975 42.4776 16.5709C41.4725 14.1444 39.9993 11.9396 38.1421 10.0825C36.285 8.2253 34.0802 6.75211 31.6537 5.74702C29.2272 4.74192 26.6264 4.22461 24 4.22461Z" fill="black"/>
</svg>
