<svg width="48" height="48" viewBox="0 0 48 48" fill="none" xmlns="http://www.w3.org/2000/svg">
<path d="M25.7633 14.2125H26.1758L27.3383 13.05L27.4133 12.5625C26.5133 11.7375 25.2758 11.25 23.9258 11.25C21.5258 11.25 19.4633 12.9 18.8633 15.1125C18.9758 15.0375 19.2758 15.075 19.2758 15.075L21.6008 14.7C21.6008 14.7 21.7133 14.5125 21.7883 14.5125C22.8383 13.3875 24.5633 13.275 25.7633 14.2125Z" fill="#EA4535"/>
<path d="M29.025 15.1125C28.725 14.1375 28.2 13.2375 27.4125 12.5625L25.7625 14.2125C26.475 14.775 26.85 15.6 26.85 16.5V16.8C27.6375 16.8 28.3125 17.4375 28.3125 18.2625C28.3125 19.05 27.675 19.6875 26.85 19.6875H23.925L23.625 19.9875V21.75L23.925 22.05H26.85C28.95 22.05 30.6375 20.3625 30.6375 18.2625C30.6375 16.9875 30 15.825 28.9875 15.15L29.025 15.1125Z" fill="#557EBF"/>
<path d="M21.0375 22.0156H23.9625V19.6906H21.0375C20.8125 19.6906 20.625 19.6531 20.4375 19.5781L20.025 19.6906L18.8625 20.8531L18.75 21.2281C19.3875 21.7531 20.2125 22.0156 21.0375 22.0156Z" fill="#36A852"/>
<path d="M21.0375 14.4375C18.9375 14.4375 17.25 16.125 17.25 18.225C17.25 19.425 17.8125 20.55 18.75 21.2625L20.4375 19.575C19.9125 19.3125 19.575 18.825 19.575 18.225C19.575 17.4375 20.2125 16.7625 21.0375 16.7625C21.6 16.8 22.125 17.1375 22.35 17.625L24.0375 15.9375C23.3625 15.0375 22.2375 14.4375 21.0375 14.4375Z" fill="#F9BC15"/>
<path d="M5.96406 29.3609C5.17656 29.3609 4.50156 29.0609 3.90156 28.4984C3.30156 27.9359 3.03906 27.2984 3.03906 26.4734C3.03906 25.6484 3.33906 25.0109 3.90156 24.4484C4.46406 23.8859 5.17656 23.5859 5.96406 23.5859C6.67656 23.6234 7.38906 23.8859 7.91406 24.4109L7.35156 24.9734C6.97656 24.5984 6.48906 24.4109 5.92656 24.4109C5.36406 24.4109 4.87656 24.5984 4.46406 25.0109C4.08906 25.3859 3.86406 25.9484 3.90156 26.4734C3.90156 27.0359 4.08906 27.5609 4.50156 27.9359C4.87656 28.3859 5.40156 28.5734 5.92656 28.5734C6.52656 28.5734 6.97656 28.3859 7.38906 28.0109C7.61406 27.7859 7.76406 27.4484 7.80156 27.0359H5.96406V26.2484H8.58906C8.62656 26.3984 8.62656 26.5484 8.62656 26.7359C8.62656 27.5234 8.40156 28.1234 7.95156 28.5734C7.42656 29.0984 6.78906 29.3984 5.96406 29.3984V29.3609ZM12.1141 28.8359C11.7391 29.1734 11.3266 29.3609 10.8016 29.3609C10.2766 29.3609 9.82656 29.1734 9.48906 28.8359C9.15156 28.4984 8.96406 28.0484 8.96406 27.5234C8.96406 26.9984 9.15156 26.5484 9.48906 26.2109C9.82656 25.8734 10.2766 25.6859 10.8016 25.6859C11.3266 25.6859 11.7766 25.8734 12.1141 26.2109C12.4516 26.5484 12.6391 26.9984 12.6391 27.5234C12.6391 28.0484 12.4516 28.4984 12.1141 28.8359ZM10.0516 28.3109C10.2391 28.5359 10.5016 28.6484 10.7641 28.6484C11.0641 28.6484 11.2891 28.5359 11.5141 28.3109C11.7391 28.0859 11.8141 27.8234 11.8141 27.5234C11.8141 27.1859 11.7016 26.9234 11.5141 26.6984C11.3266 26.4734 11.0641 26.3984 10.7641 26.3984C10.5016 26.3984 10.2016 26.5109 10.0141 26.6984C9.82656 26.9234 9.71406 27.1859 9.71406 27.5234C9.71406 27.8609 9.82656 28.1234 10.0141 28.3109H10.0516ZM16.1641 28.8359C15.7891 29.1734 15.3766 29.3609 14.8516 29.3609C14.3266 29.3609 13.8766 29.1734 13.5391 28.8359C13.2016 28.4984 13.0141 28.0484 13.0141 27.5234C13.0141 26.9984 13.2016 26.5484 13.5391 26.2109C13.8766 25.8734 14.3266 25.6859 14.8516 25.6859C15.3766 25.6859 15.8266 25.8734 16.1641 26.2109C16.5016 26.5484 16.6891 26.9984 16.6891 27.5234C16.6891 28.0484 16.5016 28.4984 16.1641 28.8359ZM14.1016 28.3109C14.2891 28.5359 14.5516 28.6484 14.8141 28.6484C15.1141 28.6484 15.3391 28.5359 15.5641 28.3109C15.7891 28.0859 15.8641 27.8234 15.8641 27.5234C15.8641 27.1859 15.7516 26.9234 15.5641 26.6984C15.3766 26.4734 15.1141 26.3984 14.8141 26.3984C14.5516 26.3984 14.2516 26.5109 14.0641 26.6984C13.8766 26.9234 13.7641 27.1859 13.7641 27.5234C13.7641 27.8609 13.8766 28.1234 14.0641 28.3109H14.1016ZM18.8266 31.0109C18.4141 31.0109 18.0766 30.8984 17.7766 30.6734C17.4766 30.4484 17.2891 30.1859 17.1766 29.9234L17.8891 29.6234C17.9641 29.8109 18.0766 29.9609 18.2266 30.0734C18.4516 30.2422 18.5641 30.2609 18.8266 30.2609C19.1266 30.2609 19.3891 30.1484 19.5391 29.9984C19.6891 29.8484 19.8016 29.5484 19.8016 29.1734V28.9109H19.7641C19.5391 29.1734 19.2016 29.3234 18.7891 29.3234C18.3016 29.3234 17.8891 29.1359 17.5516 28.7984C17.1766 28.4984 16.9891 28.0109 17.0266 27.5234C16.9891 27.0359 17.1766 26.5484 17.5516 26.2109C17.8891 25.8359 18.3016 25.6859 18.7891 25.6859C19.0141 25.6859 19.2016 25.7234 19.3516 25.7984C19.5766 25.9109 19.6516 25.9859 19.7641 26.0984H19.8016V25.7984H20.5891V29.1359C20.5891 29.7734 20.4391 30.2609 20.1016 30.5984C19.7641 30.8984 19.3516 31.0859 18.8266 31.0859V31.0109ZM18.8641 28.6109C19.1266 28.6484 19.3891 28.5359 19.5391 28.3109C19.7266 28.0859 19.8391 27.8234 19.8391 27.5234C19.8391 27.1859 19.7266 26.9234 19.5391 26.6984C19.3891 26.5109 19.1266 26.3984 18.8641 26.3984C18.5641 26.3984 18.3391 26.5109 18.1516 26.7359C17.9641 26.9609 17.8516 27.2234 17.8516 27.5609C17.8516 27.8609 17.9641 28.1609 18.1516 28.3484C18.3391 28.5359 18.6016 28.6859 18.8641 28.6859V28.6109ZM21.9391 23.7734V29.2109H21.1141V23.7734H21.9391ZM24.1516 29.3234C23.6266 29.3234 23.1766 29.1359 22.8391 28.7984C22.5016 28.4609 22.3141 28.0109 22.3141 27.4859C22.3141 26.9609 22.5016 26.5109 22.8391 26.1359C23.1391 25.8359 23.5891 25.6484 24.0766 25.6484C24.3016 25.6484 24.5266 25.6859 24.7141 25.7609C24.8641 25.8734 25.0141 25.9484 25.1641 26.0984C25.2766 26.2109 25.3891 26.3234 25.4641 26.4734C25.5391 26.5859 25.6141 26.6984 25.6516 26.8484L25.7266 27.0734L23.2516 28.0859C23.4391 28.4609 23.7391 28.6484 24.1516 28.6484C24.5266 28.6484 24.8266 28.4609 25.0516 28.1234L25.6891 28.5359C25.5391 28.7609 25.3516 28.9484 25.0891 29.0984C24.8266 29.2484 24.5266 29.3609 24.1516 29.3609V29.3234ZM23.1391 27.4109L24.7891 26.7359C24.7516 26.6234 24.6391 26.5109 24.5266 26.4359C24.3766 26.3984 24.2266 26.3609 24.0766 26.3609C23.8516 26.3609 23.6266 26.4734 23.4016 26.6609C23.1766 26.8484 23.1016 27.1109 23.1016 27.4484L23.1391 27.4109ZM30.0016 29.3234C29.2516 29.3234 28.6516 29.0609 28.1266 28.5734C27.6016 28.0859 27.3766 27.4484 27.3766 26.6984C27.3766 25.9484 27.6391 25.3109 28.1266 24.8234C28.6141 24.3359 29.2516 24.0734 30.0016 24.0734C30.7516 24.0734 31.3891 24.3359 31.8391 24.8984L31.3891 25.3484C31.0516 24.9359 30.5641 24.7109 30.0016 24.7109C29.4391 24.7109 28.9891 24.8984 28.6141 25.2734C28.2391 25.6484 28.0516 26.1359 28.0516 26.7359C28.0516 27.3359 28.2391 27.8234 28.6141 28.1984C28.9891 28.5734 29.4391 28.7609 30.0016 28.7609C30.6016 28.7609 31.1266 28.5359 31.5391 28.0484L31.9891 28.4984C31.7641 28.7609 31.4641 28.9859 31.1266 29.1359C30.7516 29.2859 30.3766 29.3609 30.0016 29.3609V29.3234ZM33.2266 29.2109H32.5891V24.2234H33.2266V29.2109ZM34.2766 26.1734C34.6141 25.8359 35.0266 25.6484 35.5516 25.6484C36.0766 25.6484 36.4891 25.8359 36.8266 26.1734C37.1641 26.5109 37.3141 26.9609 37.3141 27.4859C37.3141 28.0109 37.1641 28.4609 36.8266 28.7984C36.4891 29.1359 36.0766 29.3234 35.5516 29.3234C35.0266 29.3234 34.6141 29.1359 34.2766 28.7984C33.9391 28.4609 33.7891 28.0109 33.7891 27.4859C33.7891 26.9609 33.9391 26.5109 34.2766 26.1734ZM34.7641 28.3859C34.9891 28.6109 35.2516 28.7234 35.5516 28.7234C36.0016 28.7234 36.1141 28.6109 36.3391 28.3859C36.5641 28.1609 36.6766 27.8609 36.6766 27.4859C36.6766 27.1109 36.5641 26.8109 36.3391 26.5859C36.1141 26.3609 35.8516 26.2484 35.5516 26.2484C35.2516 26.2484 34.9891 26.3609 34.7641 26.5859C34.5391 26.8109 34.4266 27.1109 34.4266 27.4859C34.4266 27.8609 34.5391 28.1609 34.7641 28.3859ZM40.8766 29.2109H40.2766V28.7234H40.2391C40.1266 28.8734 39.9766 29.0234 39.7891 29.1359C39.6016 29.2484 39.3766 29.3234 39.1516 29.3234C38.7391 29.3234 38.4016 29.2109 38.1766 28.9484C37.9516 28.6859 37.8391 28.3484 37.8391 27.8984V25.7984H38.4766V27.7859C38.4766 28.4234 38.7766 28.7609 39.3391 28.7609C39.5641 28.7609 39.8266 28.6484 39.9766 28.4609C40.1266 28.2359 40.2016 27.9734 40.2016 27.7109V25.8359H40.8391V29.2859L40.8766 29.2109ZM43.0516 29.3234C42.6016 29.3234 42.2266 29.1359 41.8891 28.7984C41.5516 28.4609 41.4016 28.0109 41.4016 27.4859C41.4016 26.9609 41.5516 26.5484 41.8891 26.1734C42.2266 25.7984 42.6016 25.6484 43.0516 25.6484C43.3141 25.6484 43.5391 25.7234 43.7641 25.7984C43.9891 25.8734 44.1391 26.0609 44.2141 26.2109H44.2516L44.2141 25.7234V24.1484H44.8516V29.1734H44.2516V28.6859H44.2141C44.1016 28.8359 43.9516 28.9859 43.7641 29.0984C43.5391 29.2109 43.3141 29.2484 43.0516 29.2484V29.3234ZM43.1641 28.7234C43.4266 28.7609 43.7266 28.6484 43.9141 28.4234C44.1391 28.1984 44.2141 27.8984 44.2141 27.5234C44.2141 27.1484 44.1016 26.8484 43.9141 26.6234C43.7266 26.4359 43.4266 26.2859 43.1641 26.2859C42.8641 26.2859 42.6016 26.3984 42.3766 26.6234C42.0391 26.9609 42.0391 27.1484 42.0391 27.5234C42.0391 27.8984 42.1516 28.1984 42.3766 28.4234C42.5641 28.6484 42.8641 28.7984 43.1641 28.7984V28.7234Z" fill="#5F6368"/>
</svg>
