<svg width="13" height="102" viewBox="0 0 13 102" fill="none" xmlns="http://www.w3.org/2000/svg">
<mask id="path-1-inside-1_14_434" fill="white">
<path d="M0 14H13V22H8C3.58172 22 0 18.4183 0 14Z"/>
</mask>
<path d="M0 14H13H0ZM13 24H8C2.47715 24 -2 19.5228 -2 14H2C2 17.3137 4.68629 20 8 20H13V24ZM8 24C2.47715 24 -2 19.5228 -2 14H2C2 17.3137 4.68629 20 8 20V24ZM13 14V22V14Z" fill="#DCDFE1" mask="url(#path-1-inside-1_14_434)"/>
<mask id="path-3-inside-2_14_434" fill="white">
<path d="M0 54H13V62H8C3.58172 62 0 58.4183 0 54Z"/>
</mask>
<path d="M0 54H13H0ZM13 64H8C2.47715 64 -2 59.5228 -2 54H2C2 57.3137 4.68629 60 8 60H13V64ZM8 64C2.47715 64 -2 59.5228 -2 54H2C2 57.3137 4.68629 60 8 60V64ZM13 54V62V54Z" fill="#DCDFE1" mask="url(#path-3-inside-2_14_434)"/>
<mask id="path-5-inside-3_14_434" fill="white">
<path d="M0 94H13V102H8C3.58172 102 0 98.4183 0 94Z"/>
</mask>
<path d="M0 94H13H0ZM13 104H8C2.47715 104 -2 99.5228 -2 94H2C2 97.3137 4.68629 100 8 100H13V104ZM8 104C2.47715 104 -2 99.5228 -2 94H2C2 97.3137 4.68629 100 8 100V104ZM13 94V102V94Z" fill="#DCDFE1" mask="url(#path-5-inside-3_14_434)"/>
<rect width="2" height="94.3134" fill="#DCDFE1"/>
</svg>
